<?xml version="1.0" encoding="UTF-8"?>
<svg width="200px" height="60px" viewBox="0 0 200 60" version="1.1" xmlns="http://www.w3.org/2000/svg" xmlns:xlink="http://www.w3.org/1999/xlink">
    <!-- Generator: Sketch 50.2 (55047) - http://www.bohemiancoding.com/sketch -->
    <title>Appstore</title>
    <desc>Created with Sketch.</desc>
    <defs></defs>
    <g id="Website" stroke="none" stroke-width="1" fill="none" fill-rule="evenodd">
        <g id="Artboard-2-Copy" transform="translate(-60.000000, -621.000000)" fill="#121212">
            <g id="Appstore" transform="translate(60.000000, 621.000000)">
                <g id="Combined-Shape">
                    <path d="M0,5.51252926 C0,2.46804342 2.47452917,0 5.50544919,0 L194.494551,0 C197.535126,0 200,2.47089054 200,5.51252926 L200,54.6569623 C200,57.7014481 197.525471,60.1694915 194.494551,60.1694915 L5.50544919,60.1694915 C2.46487356,60.1694915 0,57.698601 0,54.6569623 L0,5.51252926 Z M76.7673629,46.2090527 L80.1288363,46.2090527 L72.7703168,25.5526474 L69.3664719,25.5526474 L62.0079524,46.2090527 L65.2564351,46.2090527 L67.1349055,40.7264448 L74.9030163,40.7264448 L76.7673629,46.2090527 Z M70.9059702,29.3031521 L71.1460755,29.3031521 L74.0979576,38.035243 L67.9399643,38.035243 L70.9059702,29.3031521 Z M89.0418389,30.3624549 C86.9515109,30.3624549 85.1436597,31.4217577 84.2114864,33.1968057 L83.985505,33.1968057 L83.985505,30.6201231 L81.0618705,30.6201231 L81.0618705,51.2622135 L84.0984957,51.2622135 L84.0984957,43.8470936 L84.3386009,43.8470936 C85.1436597,45.4933075 86.8808917,46.4667209 89.0700866,46.4667209 C92.954142,46.4667209 95.4258136,43.3603869 95.4258136,38.4074304 C95.4258136,33.454474 92.954142,30.3624549 89.0418389,30.3624549 Z M88.1802848,43.7039446 C85.637994,43.7039446 84.0420003,41.6712284 84.0420003,38.4217453 C84.0420003,35.1579474 85.637994,33.1252312 88.1944086,33.1252312 C90.7649471,33.1252312 92.3044454,35.1150027 92.3044454,38.4074304 C92.3044454,41.7141731 90.7649471,43.7039446 88.1802848,43.7039446 Z M104.790779,30.3624549 C102.700451,30.3624549 100.8926,31.4217577 99.9604265,33.1968057 L99.7344451,33.1968057 L99.7344451,30.6201231 L96.8108106,30.6201231 L96.8108106,51.2622135 L99.8474358,51.2622135 L99.8474358,43.8470936 L100.087541,43.8470936 C100.8926,45.4933075 102.629832,46.4667209 104.819027,46.4667209 C108.703082,46.4667209 111.174754,43.3603869 111.174754,38.4074304 C111.174754,33.454474 108.703082,30.3624549 104.790779,30.3624549 Z M103.929225,43.7039446 C101.386934,43.7039446 99.7909404,41.6712284 99.7909404,38.4217453 C99.7909404,35.1579474 101.386934,33.1252312 103.943349,33.1252312 C106.513887,33.1252312 108.053386,35.1150027 108.053386,38.4074304 C108.053386,41.7141731 106.513887,43.7039446 103.929225,43.7039446 Z M117.602822,40.6548702 C117.828803,44.3481152 120.865428,46.7100743 125.385056,46.7100743 C130.215409,46.7100743 133.23791,44.233596 133.23791,40.2826828 C133.23791,37.1763488 131.514802,35.4585604 127.334146,34.4708321 L125.088456,33.9125509 C122.433174,33.2826951 121.359763,32.4381158 121.359763,30.9636808 C121.359763,29.1027434 123.026375,27.8859766 125.526295,27.8859766 C127.8991,27.8859766 129.537465,29.0741136 129.834065,30.9779957 L132.913062,30.9779957 C132.729452,27.4994743 129.706951,25.0516258 125.568666,25.0516258 C121.119657,25.0516258 118.153651,27.4994743 118.153651,31.1784044 C118.153651,34.2131638 119.834388,36.0168416 123.52071,36.8900507 L126.147744,37.5342214 C128.845397,38.178392 130.031799,39.1231756 130.031799,40.6978149 C130.031799,42.5301226 128.167452,43.8614085 125.625162,43.8614085 C122.899261,43.8614085 121.006667,42.616012 120.738314,40.6548702 L117.602822,40.6548702 Z M135.851681,26.8409887 L135.851681,30.6916977 L133.323514,30.6916977 L133.323514,33.2826951 L135.851681,33.2826951 L135.851681,42.0863606 C135.851681,45.0924902 137.193446,46.2949421 140.569043,46.2949421 C141.162244,46.2949421 141.713074,46.2233676 142.193284,46.1374781 L142.193284,43.5751105 C141.769569,43.6180552 141.529464,43.646685 141.063377,43.646685 C139.552127,43.646685 138.888306,42.9309398 138.888306,41.2990409 L138.888306,33.2826951 L142.334523,33.2826951 L142.334523,30.6916977 L138.888306,30.6916977 L138.888306,26.8409887 L135.851681,26.8409887 Z M149.863389,46.5096656 C154.35477,46.5096656 157.108918,43.4605913 157.108918,38.4074304 C157.108918,33.3828994 154.340646,30.3195102 149.863389,30.3195102 C145.372009,30.3195102 142.603737,33.3828994 142.603737,38.4074304 C142.603737,43.4605913 145.357885,46.5096656 149.863389,46.5096656 Z M149.863389,43.7755191 C147.222232,43.7755191 145.739229,41.8143774 145.739229,38.4074304 C145.739229,35.0291133 147.222232,33.0536567 149.863389,33.0536567 C152.490423,33.0536567 153.98755,35.0291133 153.98755,38.4074304 C153.98755,41.8000625 152.490423,43.7755191 149.863389,43.7755191 Z M158.493915,46.2090527 L161.53054,46.2090527 L161.53054,37.0045699 C161.53054,34.8143898 163.154781,33.3399547 165.442843,33.3399547 C165.951301,33.3399547 166.883475,33.4401591 167.12358,33.5260485 L167.12358,30.491289 C166.798732,30.4053996 166.219654,30.3624549 165.781815,30.3624549 C163.77623,30.3624549 162.08137,31.4790173 161.643531,33.010712 L161.417549,33.010712 L161.417549,30.6201231 L158.493915,30.6201231 L158.493915,46.2090527 Z M177.731443,42.0004711 C177.16649,43.2172379 175.909468,43.8900383 174.073369,43.8900383 C171.644069,43.8900383 170.076323,42.1579351 169.977456,39.4237886 L169.977456,39.2520097 L180.838687,39.2520097 L180.838687,38.178392 C180.838687,33.2826951 178.254025,30.3195102 173.974502,30.3195102 C169.638484,30.3195102 166.884336,33.4831038 166.884336,38.4646901 C166.884336,43.4462764 169.581989,46.5096656 173.988626,46.5096656 C177.505462,46.5096656 179.963009,44.7918772 180.655077,42.0004711 L177.731443,42.0004711 Z M173.960378,32.9391374 C176.206069,32.9391374 177.674948,34.5280917 177.745567,36.9759401 L169.977456,36.9759401 C170.146942,34.5424066 171.714688,32.9391374 173.960378,32.9391374 Z M64.8537039,9.4290222 L64.8537039,19.2654056 L68.3577608,19.2654056 C71.2497848,19.2654056 72.9244684,17.4590012 72.9244684,14.3165391 C72.9244684,11.2217934 71.2363335,9.4290222 68.3577608,9.4290222 L64.8537039,9.4290222 Z M66.3602466,10.8196128 L68.1896199,10.8196128 C70.2005854,10.8196128 71.3910232,12.1147707 71.3910232,14.336989 C71.3910232,16.5932904 70.2207623,17.874815 68.1896199,17.874815 L66.3602466,17.874815 L66.3602466,10.8196128 Z M78.2256155,19.4085547 C80.3643681,19.4085547 81.6758673,17.9566145 81.6758673,15.5503474 C81.6758673,13.1577136 80.3576425,11.6989568 78.2256155,11.6989568 C76.0868629,11.6989568 74.7686381,13.1577136 74.7686381,15.5503474 C74.7686381,17.9566145 76.0801373,19.4085547 78.2256155,19.4085547 Z M78.2256155,18.1065801 C76.9679214,18.1065801 76.2617295,17.1727031 76.2617295,15.5503474 C76.2617295,13.941625 76.9679214,13.0009314 78.2256155,13.0009314 C79.476584,13.0009314 80.1895015,13.941625 80.1895015,15.5503474 C80.1895015,17.1658865 79.476584,18.1065801 78.2256155,18.1065801 Z M93.0099109,11.8421059 L91.5638989,11.8421059 L90.2591253,17.5067175 L90.1447895,17.5067175 L88.6382468,11.8421059 L87.2527656,11.8421059 L85.7462229,17.5067175 L85.6386127,17.5067175 L84.3271135,11.8421059 L82.8609246,11.8421059 L84.8786157,19.2654056 L86.3649815,19.2654056 L87.8715242,13.798476 L87.98586,13.798476 L89.4991284,19.2654056 L90.9989454,19.2654056 L93.0099109,11.8421059 Z M94.8473549,19.2654056 L96.2933669,19.2654056 L96.2933669,14.9232184 C96.2933669,13.7643929 97.0062844,13.0418311 98.1698196,13.0418311 C99.2459216,13.0418311 99.7705213,13.6348771 99.7705213,14.8277857 L99.7705213,19.2654056 L101.216533,19.2654056 L101.216533,14.4596882 C101.216533,12.6941834 100.295121,11.6989568 98.6607912,11.6989568 C97.5577867,11.6989568 96.7036308,12.1965701 96.347172,13.0213812 L96.2395618,13.0213812 L96.2395618,11.8421059 L94.8473549,11.8421059 L94.8473549,19.2654056 Z M103.659285,19.2654056 L105.105297,19.2654056 L105.105297,8.94504214 L103.659285,8.94504214 L103.659285,19.2654056 Z M110.709097,19.4085547 C112.84785,19.4085547 114.159349,17.9566145 114.159349,15.5503474 C114.159349,13.1577136 112.841124,11.6989568 110.709097,11.6989568 C108.570345,11.6989568 107.25212,13.1577136 107.25212,15.5503474 C107.25212,17.9566145 108.563619,19.4085547 110.709097,19.4085547 Z M110.709097,18.1065801 C109.451403,18.1065801 108.745211,17.1727031 108.745211,15.5503474 C108.745211,13.941625 109.451403,13.0009314 110.709097,13.0009314 C111.960066,13.0009314 112.672983,13.941625 112.672983,15.5503474 C112.672983,17.1658865 111.960066,18.1065801 110.709097,18.1065801 Z M118.263333,19.3881048 C119.225099,19.3881048 120.02545,18.9654743 120.462616,18.2224627 L120.576952,18.2224627 L120.576952,19.2654056 L121.969159,19.2654056 L121.969159,14.19384 C121.969159,12.6260172 120.933411,11.6989568 119.097312,11.6989568 C117.43608,11.6989568 116.252367,12.5169513 116.104403,13.7916593 L117.503336,13.7916593 C117.664751,13.2667796 118.222979,12.9668483 119.030056,12.9668483 C120.018724,12.9668483 120.529873,13.4099286 120.529873,14.19384 L120.529873,14.8346023 L118.54581,14.9504848 C116.80387,15.0595508 115.821927,15.8298289 115.821927,17.1658865 C115.821927,18.522394 116.850949,19.3881048 118.263333,19.3881048 Z M118.633243,18.1542965 C117.846343,18.1542965 117.274664,17.7657491 117.274664,17.0977203 C117.274664,16.4433247 117.732008,16.0956771 118.740853,16.0275109 L120.529873,15.9116283 L120.529873,16.5319408 C120.529873,17.4521846 119.722796,18.1542965 118.633243,18.1542965 Z M127.04836,19.3881048 C128.057206,19.3881048 128.911361,18.9041248 129.348528,18.0929469 L129.462864,18.0929469 L129.462864,19.2654056 L130.848345,19.2654056 L130.848345,8.94504214 L129.402333,8.94504214 L129.402333,13.0213812 L129.294723,13.0213812 C128.89791,12.2033868 128.05048,11.7194067 127.04836,11.7194067 C125.19881,11.7194067 124.008372,13.20543 124.008372,15.5503474 C124.008372,17.9020815 125.185359,19.3881048 127.04836,19.3881048 Z M127.458624,13.0350145 C128.669239,13.0350145 129.429236,14.0097912 129.429236,15.5571641 C129.429236,17.1113535 128.675964,18.072497 127.458624,18.072497 C126.234558,18.072497 125.501463,17.1249868 125.501463,15.5503474 C125.501463,13.9893413 126.241284,13.0350145 127.458624,13.0350145 Z M140.562855,19.4085547 C142.701608,19.4085547 144.013107,17.9566145 144.013107,15.5503474 C144.013107,13.1577136 142.694882,11.6989568 140.562855,11.6989568 C138.424103,11.6989568 137.105878,13.1577136 137.105878,15.5503474 C137.105878,17.9566145 138.417377,19.4085547 140.562855,19.4085547 Z M140.562855,18.1065801 C139.305161,18.1065801 138.598969,17.1727031 138.598969,15.5503474 C138.598969,13.941625 139.305161,13.0009314 140.562855,13.0009314 C141.813824,13.0009314 142.526741,13.941625 142.526741,15.5503474 C142.526741,17.1658865 141.813824,18.1065801 140.562855,18.1065801 Z M146.092674,19.2654056 L147.538686,19.2654056 L147.538686,14.9232184 C147.538686,13.7643929 148.251603,13.0418311 149.415139,13.0418311 C150.491241,13.0418311 151.01584,13.6348771 151.01584,14.8277857 L151.01584,19.2654056 L152.461852,19.2654056 L152.461852,14.4596882 C152.461852,12.6941834 151.54044,11.6989568 149.90611,11.6989568 C148.803106,11.6989568 147.94895,12.1965701 147.592491,13.0213812 L147.484881,13.0213812 L147.484881,11.8421059 L146.092674,11.8421059 L146.092674,19.2654056 Z M159.459205,10.042518 L159.459205,11.876189 L158.255316,11.876189 L158.255316,13.1099973 L159.459205,13.1099973 L159.459205,17.3022189 C159.459205,18.7337092 160.09814,19.3063054 161.705568,19.3063054 C161.988045,19.3063054 162.250344,19.2722223 162.479016,19.2313225 L162.479016,18.0111475 C162.277247,18.0315973 162.162911,18.0452306 161.940965,18.0452306 C161.221322,18.0452306 160.905217,17.7043995 160.905217,16.9273048 L160.905217,13.1099973 L162.546272,13.1099973 L162.546272,11.876189 L160.905217,11.876189 L160.905217,10.042518 L159.459205,10.042518 Z M164.605662,19.2654056 L166.051674,19.2654056 L166.051674,14.930035 C166.051674,13.8052926 166.784769,13.0486477 167.968481,13.0486477 C169.058034,13.0486477 169.602811,13.6485103 169.602811,14.8346023 L169.602811,19.2654056 L171.048823,19.2654056 L171.048823,14.4733214 C171.048823,12.7078167 170.107234,11.7057735 168.459452,11.7057735 C167.356448,11.7057735 166.509018,12.2033868 166.152559,13.0350145 L166.038223,13.0350145 L166.038223,8.94504214 L164.605662,8.94504214 L164.605662,19.2654056 Z M178.233148,17.2613192 C177.964123,17.8407319 177.365541,18.1611131 176.491208,18.1611131 C175.334399,18.1611131 174.587853,17.336302 174.540774,16.0343275 L174.540774,15.9525281 L179.712788,15.9525281 L179.712788,15.4412815 C179.712788,13.1099973 178.481997,11.6989568 176.444129,11.6989568 C174.379358,11.6989568 173.067859,13.20543 173.067859,15.5776139 C173.067859,17.9497979 174.352456,19.4085547 176.450854,19.4085547 C178.125538,19.4085547 179.295799,18.5905602 179.625355,17.2613192 L178.233148,17.2613192 Z M176.437403,12.9463984 C177.506779,12.9463984 178.206246,13.7030433 178.239874,14.8686854 L174.540774,14.8686854 C174.621481,13.7098599 175.368027,12.9463984 176.437403,12.9463984 Z M44.5372956,30.3715253 C44.4929691,25.3785224 48.5710106,22.9494102 48.7574878,22.8363202 C46.4479223,19.4234796 42.8681722,18.9571768 41.6102156,18.9199965 C38.6036535,18.5993165 35.687273,20.7433798 34.1557146,20.7433798 C32.5935863,20.7433798 30.2351088,18.9509801 27.6932111,19.0036521 C24.4222182,19.054775 21.3621586,20.9742074 19.6838641,23.9548272 C16.2202801,30.0322551 18.8034474,38.9632702 22.1218237,43.8757158 C23.7817762,46.2831395 25.7214443,48.9678661 28.260285,48.8733662 C30.7440997,48.7711204 31.6719,47.2684171 34.6692911,47.2684171 C37.6391692,47.2684171 38.5104149,48.8733662 41.0996962,48.8113991 C43.7654025,48.7711204 45.4436969,46.3962295 47.0455663,43.9671174 C48.9638355,41.2126777 49.7342001,38.4938691 49.7647702,38.354443 C49.7036301,38.3343037 44.5892647,36.3560025 44.5372956,30.3715253 Z M39.6460914,15.6884098 C40.9820016,13.9951575 41.8960454,11.6915288 41.6423141,9.35381814 C39.70876,9.44057215 37.2906709,10.7093495 35.8982062,12.3654215 C34.6662341,13.8247478 33.5657131,16.2166797 33.8500144,18.4660871 C36.0220148,18.6303001 38.2520982,17.355326 39.6460914,15.6884098 Z"></path>
                </g>
            </g>
        </g>
    </g>
</svg>